<?xml version="1.0" encoding="UTF-8" standalone="no"?><!DOCTYPE svg PUBLIC "-//W3C//DTD SVG 1.1//EN" "http://www.w3.org/Graphics/SVG/1.1/DTD/svg11.dtd"><!-- Generated by graphviz version 2.40.1 (20161225.0304)
 --><!-- Title: Tree Pages: 1 --><svg xmlns="http://www.w3.org/2000/svg" xmlns:xlink="http://www.w3.org/1999/xlink" width="542pt" height="339pt" viewBox="0.00 0.00 541.89 339.20">
<g id="graph0" class="graph" transform="scale(1 1) rotate(0) translate(4 335.2)">
<title>Tree</title>
<polygon fill="#ffffff" stroke="transparent" points="-4,4 -4,-335.2 537.8856,-335.2 537.8856,4 -4,4"/>
<!-- 0 -->
<g id="node1" class="node">
<title>0</title>
<path fill="#ffffff" stroke="#000000" d="M318.6114,-331.2C318.6114,-331.2 215.2742,-331.2 215.2742,-331.2 209.2742,-331.2 203.2742,-325.2 203.2742,-319.2 203.2742,-319.2 203.2742,-251.2 203.2742,-251.2 203.2742,-245.2 209.2742,-239.2 215.2742,-239.2 215.2742,-239.2 318.6114,-239.2 318.6114,-239.2 324.6114,-239.2 330.6114,-245.2 330.6114,-251.2 330.6114,-251.2 330.6114,-319.2 330.6114,-319.2 330.6114,-325.2 324.6114,-331.2 318.6114,-331.2"/>
<text text-anchor="start" x="225.7016" y="-314.6" font-family="Helvetica,sans-Serif" font-size="14.00" fill="#000000">Area ≤ 0.265</text>
<text text-anchor="start" x="238.3478" y="-297.8" font-family="Helvetica,sans-Serif" font-size="14.00" fill="#000000">gini = 0.5</text>
<text text-anchor="start" x="221.2335" y="-281" font-family="Helvetica,sans-Serif" font-size="14.00" fill="#000000">samples = 720</text>
<text text-anchor="start" x="211.1087" y="-264.2" font-family="Helvetica,sans-Serif" font-size="14.00" fill="#000000">value = [360, 360]</text>
<text text-anchor="start" x="215.7945" y="-247.4" font-family="Helvetica,sans-Serif" font-size="14.00" fill="#000000">class = Kecimen</text>
</g>
<!-- 1 -->
<g id="node2" class="node">
<title>1</title>
<path fill="#6bb6ec" stroke="#000000" d="M249.1374,-203.2C249.1374,-203.2 140.7482,-203.2 140.7482,-203.2 134.7482,-203.2 128.7482,-197.2 128.7482,-191.2 128.7482,-191.2 128.7482,-123.2 128.7482,-123.2 128.7482,-117.2 134.7482,-111.2 140.7482,-111.2 140.7482,-111.2 249.1374,-111.2 249.1374,-111.2 255.1374,-111.2 261.1374,-117.2 261.1374,-123.2 261.1374,-123.2 261.1374,-191.2 261.1374,-191.2 261.1374,-197.2 255.1374,-203.2 249.1374,-203.2"/>
<text text-anchor="start" x="136.5957" y="-186.6" font-family="Helvetica,sans-Serif" font-size="14.00" fill="#000000">Eccentricity ≤ 0.86</text>
<text text-anchor="start" x="158.5652" y="-169.8" font-family="Helvetica,sans-Serif" font-size="14.00" fill="#000000">gini = 0.324</text>
<text text-anchor="start" x="149.2335" y="-153" font-family="Helvetica,sans-Serif" font-size="14.00" fill="#000000">samples = 389</text>
<text text-anchor="start" x="143" y="-136.2" font-family="Helvetica,sans-Serif" font-size="14.00" fill="#000000">value = [79, 310]</text>
<text text-anchor="start" x="153.5161" y="-119.4" font-family="Helvetica,sans-Serif" font-size="14.00" fill="#000000">class = Besni</text>
</g>
<!-- 0&#45;&gt;1 -->
<g id="edge1" class="edge">
<title>0-&gt;1</title>
<path fill="none" stroke="#000000" d="M240.9491,-238.9891C236.0551,-230.2885 230.893,-221.1115 225.8657,-212.1741"/>
<polygon fill="#000000" stroke="#000000" points="228.8515,-210.3429 220.8983,-203.3431 222.7504,-213.7748 228.8515,-210.3429"/>
<text text-anchor="middle" x="214.1575" y="-223.2172" font-family="Helvetica,sans-Serif" font-size="14.00" fill="#000000">True</text>
</g>
<!-- 4 -->
<g id="node5" class="node">
<title>4</title>
<path fill="#ea975c" stroke="#000000" d="M386.8285,-203.2C386.8285,-203.2 291.0571,-203.2 291.0571,-203.2 285.0571,-203.2 279.0571,-197.2 279.0571,-191.2 279.0571,-191.2 279.0571,-123.2 279.0571,-123.2 279.0571,-117.2 285.0571,-111.2 291.0571,-111.2 291.0571,-111.2 386.8285,-111.2 386.8285,-111.2 392.8285,-111.2 398.8285,-117.2 398.8285,-123.2 398.8285,-123.2 398.8285,-191.2 398.8285,-191.2 398.8285,-197.2 392.8285,-203.2 386.8285,-203.2"/>
<text text-anchor="start" x="297.7016" y="-186.6" font-family="Helvetica,sans-Serif" font-size="14.00" fill="#000000">Area ≤ 0.334</text>
<text text-anchor="start" x="302.5652" y="-169.8" font-family="Helvetica,sans-Serif" font-size="14.00" fill="#000000">gini = 0.256</text>
<text text-anchor="start" x="293.2335" y="-153" font-family="Helvetica,sans-Serif" font-size="14.00" fill="#000000">samples = 331</text>
<text text-anchor="start" x="287" y="-136.2" font-family="Helvetica,sans-Serif" font-size="14.00" fill="#000000">value = [281, 50]</text>
<text text-anchor="start" x="287.7945" y="-119.4" font-family="Helvetica,sans-Serif" font-size="14.00" fill="#000000">class = Kecimen</text>
</g>
<!-- 0&#45;&gt;4 -->
<g id="edge4" class="edge">
<title>0-&gt;4</title>
<path fill="none" stroke="#000000" d="M292.9365,-238.9891C297.8305,-230.2885 302.9926,-221.1115 308.0199,-212.1741"/>
<polygon fill="#000000" stroke="#000000" points="311.1352,-213.7748 312.9873,-203.3431 305.0341,-210.3429 311.1352,-213.7748"/>
<text text-anchor="middle" x="319.7281" y="-223.2172" font-family="Helvetica,sans-Serif" font-size="14.00" fill="#000000">False</text>
</g>
<!-- 2 -->
<g id="node3" class="node">
<title>2</title>
<path fill="#5dafea" stroke="#000000" d="M107.8285,-75.3003C107.8285,-75.3003 12.0571,-75.3003 12.0571,-75.3003 6.0571,-75.3003 .0571,-69.3003 .0571,-63.3003 .0571,-63.3003 .0571,-11.8997 .0571,-11.8997 .0571,-5.8997 6.0571,.1003 12.0571,.1003 12.0571,.1003 107.8285,.1003 107.8285,.1003 113.8285,.1003 119.8285,-5.8997 119.8285,-11.8997 119.8285,-11.8997 119.8285,-63.3003 119.8285,-63.3003 119.8285,-69.3003 113.8285,-75.3003 107.8285,-75.3003"/>
<text text-anchor="start" x="23.5652" y="-58.6" font-family="Helvetica,sans-Serif" font-size="14.00" fill="#000000">gini = 0.259</text>
<text text-anchor="start" x="14.2335" y="-41.8" font-family="Helvetica,sans-Serif" font-size="14.00" fill="#000000">samples = 360</text>
<text text-anchor="start" x="8" y="-25" font-family="Helvetica,sans-Serif" font-size="14.00" fill="#000000">value = [55, 305]</text>
<text text-anchor="start" x="18.5161" y="-8.2" font-family="Helvetica,sans-Serif" font-size="14.00" fill="#000000">class = Besni</text>
</g>
<!-- 1&#45;&gt;2 -->
<g id="edge2" class="edge">
<title>1-&gt;2</title>
<path fill="none" stroke="#000000" d="M142.7483,-110.9595C132.0013,-101.4385 120.7079,-91.4333 110.0373,-81.98"/>
<polygon fill="#000000" stroke="#000000" points="112.2003,-79.2203 102.3942,-75.2088 107.5584,-84.4599 112.2003,-79.2203"/>
</g>
<!-- 3 -->
<g id="node4" class="node">
<title>3</title>
<path fill="#ea9b62" stroke="#000000" d="M244.2398,-75.3003C244.2398,-75.3003 149.6458,-75.3003 149.6458,-75.3003 143.6458,-75.3003 137.6458,-69.3003 137.6458,-63.3003 137.6458,-63.3003 137.6458,-11.8997 137.6458,-11.8997 137.6458,-5.8997 143.6458,.1003 149.6458,.1003 149.6458,.1003 244.2398,.1003 244.2398,.1003 250.2398,.1003 256.2398,-5.8997 256.2398,-11.8997 256.2398,-11.8997 256.2398,-63.3003 256.2398,-63.3003 256.2398,-69.3003 250.2398,-75.3003 244.2398,-75.3003"/>
<text text-anchor="start" x="160.5652" y="-58.6" font-family="Helvetica,sans-Serif" font-size="14.00" fill="#000000">gini = 0.285</text>
<text text-anchor="start" x="155.1248" y="-41.8" font-family="Helvetica,sans-Serif" font-size="14.00" fill="#000000">samples = 29</text>
<text text-anchor="start" x="152.7826" y="-25" font-family="Helvetica,sans-Serif" font-size="14.00" fill="#000000">value = [24, 5]</text>
<text text-anchor="start" x="145.7945" y="-8.2" font-family="Helvetica,sans-Serif" font-size="14.00" fill="#000000">class = Kecimen</text>
</g>
<!-- 1&#45;&gt;3 -->
<g id="edge3" class="edge">
<title>1-&gt;3</title>
<path fill="none" stroke="#000000" d="M195.7161,-110.9595C195.8567,-102.5477 196.0037,-93.7581 196.1451,-85.3049"/>
<polygon fill="#000000" stroke="#000000" points="199.6461,-85.266 196.3139,-75.2088 192.6471,-85.1489 199.6461,-85.266"/>
</g>
<!-- 5 -->
<g id="node6" class="node">
<title>5</title>
<path fill="#f6d4bc" stroke="#000000" d="M384.2398,-75.3003C384.2398,-75.3003 289.6458,-75.3003 289.6458,-75.3003 283.6458,-75.3003 277.6458,-69.3003 277.6458,-63.3003 277.6458,-63.3003 277.6458,-11.8997 277.6458,-11.8997 277.6458,-5.8997 283.6458,.1003 289.6458,.1003 289.6458,.1003 384.2398,.1003 384.2398,.1003 390.2398,.1003 396.2398,-5.8997 396.2398,-11.8997 396.2398,-11.8997 396.2398,-63.3003 396.2398,-63.3003 396.2398,-69.3003 390.2398,-75.3003 384.2398,-75.3003"/>
<text text-anchor="start" x="300.5652" y="-58.6" font-family="Helvetica,sans-Serif" font-size="14.00" fill="#000000">gini = 0.479</text>
<text text-anchor="start" x="295.1248" y="-41.8" font-family="Helvetica,sans-Serif" font-size="14.00" fill="#000000">samples = 98</text>
<text text-anchor="start" x="288.8913" y="-25" font-family="Helvetica,sans-Serif" font-size="14.00" fill="#000000">value = [59, 39]</text>
<text text-anchor="start" x="285.7945" y="-8.2" font-family="Helvetica,sans-Serif" font-size="14.00" fill="#000000">class = Kecimen</text>
</g>
<!-- 4&#45;&gt;5 -->
<g id="edge5" class="edge">
<title>4-&gt;5</title>
<path fill="none" stroke="#000000" d="M338.1695,-110.9595C338.0289,-102.5477 337.8819,-93.7581 337.7405,-85.3049"/>
<polygon fill="#000000" stroke="#000000" points="341.2385,-85.1489 337.5717,-75.2088 334.2395,-85.266 341.2385,-85.1489"/>
</g>
<!-- 6 -->
<g id="node7" class="node">
<title>6</title>
<path fill="#e68743" stroke="#000000" d="M521.8285,-75.3003C521.8285,-75.3003 426.0571,-75.3003 426.0571,-75.3003 420.0571,-75.3003 414.0571,-69.3003 414.0571,-63.3003 414.0571,-63.3003 414.0571,-11.8997 414.0571,-11.8997 414.0571,-5.8997 420.0571,.1003 426.0571,.1003 426.0571,.1003 521.8285,.1003 521.8285,.1003 527.8285,.1003 533.8285,-5.8997 533.8285,-11.8997 533.8285,-11.8997 533.8285,-63.3003 533.8285,-63.3003 533.8285,-69.3003 527.8285,-75.3003 521.8285,-75.3003"/>
<text text-anchor="start" x="441.4565" y="-58.6" font-family="Helvetica,sans-Serif" font-size="14.00" fill="#000000">gini = 0.09</text>
<text text-anchor="start" x="428.2335" y="-41.8" font-family="Helvetica,sans-Serif" font-size="14.00" fill="#000000">samples = 233</text>
<text text-anchor="start" x="422" y="-25" font-family="Helvetica,sans-Serif" font-size="14.00" fill="#000000">value = [222, 11]</text>
<text text-anchor="start" x="422.7945" y="-8.2" font-family="Helvetica,sans-Serif" font-size="14.00" fill="#000000">class = Kecimen</text>
</g>
<!-- 4&#45;&gt;6 -->
<g id="edge6" class="edge">
<title>4-&gt;6</title>
<path fill="none" stroke="#000000" d="M391.1373,-110.9595C401.8843,-101.4385 413.1777,-91.4333 423.8483,-81.98"/>
<polygon fill="#000000" stroke="#000000" points="426.3272,-84.4599 431.4914,-75.2088 421.6853,-79.2203 426.3272,-84.4599"/>
</g>
</g>
</svg>